<svg xmlns="http://www.w3.org/2000/svg" xmlns:xlink="http://www.w3.org/1999/xlink" xmlns:svgjs="http://svgjs.com/svgjs" width="512" height="512" x="0" y="0" viewBox="0 0 512 512" style="enable-background:new 0 0 512 512" xml:space="preserve" class=""><g><g xmlns="http://www.w3.org/2000/svg"><path d="m405.734 418.79h-259.147c-4.239 0-8.351.875-12.218 2.601l-52.176 23.266c-3.605 1.608-5.927 5.186-5.927 9.133s2.322 7.525 5.927 9.133l52.175 23.266c3.87 1.726 7.98 2.601 12.218 2.601h259.148c16.542 0 30-13.458 30-30v-10c0-16.542-13.458-30-30-30zm-263.219 49.133-31.695-14.133 31.696-14.134c1.288-.575 2.657-.866 4.07-.866h199.148v30h-199.147c-1.412 0-2.782-.291-4.072-.867zm273.219-9.133c0 5.514-4.486 10-10 10h-40v-30h40c5.514 0 10 4.486 10 10z" fill="#2e3848" data-original="#000000" style="" class=""></path><path d="m70 176c-16.542 0-30 13.458-30 30s13.458 30 30 30 30-13.458 30-30-13.458-30-30-30zm0 40c-5.514 0-10-4.486-10-10s4.486-10 10-10 10 4.486 10 10-4.486 10-10 10z" fill="#2e3848" data-original="#000000" style="" class=""></path><path d="m80 256h-20c-11.028 0-20 8.972-20 20v52.79c0 11.028 8.972 20 20 20h20c11.028 0 20-8.972 20-20v-52.79c0-11.028-8.972-20-20-20zm0 72.79h-20v-52.79h20l.013 52.79s-.004 0-.013 0z" fill="#2e3848" data-original="#000000" style="" class=""></path><path d="m80 63.21h-20c-11.028 0-20 8.972-20 20v52.79c0 11.028 8.972 20 20 20h20c11.028 0 20-8.972 20-20v-52.79c0-11.028-8.972-20-20-20zm0 72.79h-20v-52.79h20l.013 52.789s-.004.001-.013.001z" fill="#2e3848" data-original="#000000" style="" class=""></path><path d="m462 23.21h-412c-27.57 0-50 22.43-50 50v265.58c0 27.57 22.43 50 50 50h412c27.57 0 50-22.43 50-50v-122.79c0-5.523-4.478-10-10-10s-10 4.477-10 10v122.79c0 16.542-13.458 30-30 30h-322v-325.58h322c16.542 0 30 13.458 30 30v62.79c0 5.523 4.478 10 10 10s10-4.477 10-10v-62.79c0-27.57-22.43-50-50-50zm-442 315.58v-265.58c0-16.542 13.458-30 30-30h70v325.58h-70c-16.542 0-30-13.458-30-30z" fill="#2e3848" data-original="#000000" style="" class=""></path><path d="m210 63.21h-40c-5.523 0-10 4.477-10 10v40c0 5.523 4.477 10 10 10s10-4.477 10-10v-30h30c5.523 0 10-4.477 10-10s-4.477-10-10-10z" fill="#2e3848" data-original="#000000" style="" class=""></path><path d="m462 288.79c-5.522 0-10 4.477-10 10v30h-30c-5.522 0-10 4.477-10 10s4.478 10 10 10h40c5.522 0 10-4.477 10-10v-40c0-5.523-4.478-10-10-10z" fill="#2e3848" data-original="#000000" style="" class=""></path><path d="m472 73.21c0-5.523-4.478-10-10-10h-40c-5.522 0-10 4.477-10 10s4.478 10 10 10h30v30c0 5.523 4.478 10 10 10s10-4.477 10-10z" fill="#2e3848" data-original="#000000" style="" class=""></path><path d="m170 288.79c-5.523 0-10 4.477-10 10v40c0 5.523 4.477 10 10 10h40c5.523 0 10-4.477 10-10s-4.477-10-10-10h-30v-30c0-5.523-4.477-10-10-10z" fill="#2e3848" data-original="#000000" style="" class=""></path><circle cx="502" cy="176" r="10" fill="#2e3848" data-original="#000000" style="" class=""></circle></g></g></svg>